<?xml version="1.0" encoding="utf-8"?>

<!DOCTYPE svg PUBLIC "-//W3C//DTD SVG 1.1//EN" "http://www.w3.org/Graphics/SVG/1.1/DTD/svg11.dtd">
<svg version="1.1" id="Layer_1" xmlns="http://www.w3.org/2000/svg" xmlns:xlink="http://www.w3.org/1999/xlink" x="0px" y="0px"
	 viewBox="0 0 1299.297 1648.305" enable-background="new 0 0 1299.297 1648.305" xml:space="preserve">
<g>
	<g>
		<path fill="#EE5F7C" stroke="#EE5F7C" stroke-width="0.4815" d="M499.008,718.01c50.239-10.266,97.707,17.957,114.653,61.361
			c-5.039,16.882-1.458,29.299,7.492,39.367c-0.636,11.816-2.359,23.728-6.914,34.725c-3.65,1.184-5.441,4.834-8.012,7.376
			c-8.782,9.196-19.269,17.478-31.961,20.242c3.659,4.247,8.262,7.8,10.814,12.904c8.198,16.099,6.74,33.558,7.213,38.202
			c-3.515,15.523-11.469,29.65-20.521,42.583c-7.098,2.328-35.937,40.427-118.793,35.784
			c-50.995-4.452-80.824-15.175-119.959-36.815c-27.467-15.706-75.199-46.347-89.48-50.383c-2.735-1.685-5.316-3.582-7.848-5.547
			c-0.867-3.996-4.227-6.577-6.933-9.331c-5.759-5.479-10.988-11.537-17.247-16.467c-3.669-3.024-7.8-5.788-10.198-10.005
			c-3.11-5.643-4.911-12.047-4.622-18.518c0.327-4.642-1.339-9.803,1.483-13.944c11.229,9.118,12.685,12.988,17.054,15.417
			c0.491,0.106,1.483,0.318,1.974,0.424c-2.879-8.503-9.37-15.186-12.211-23.651c-0.876-6.096,5.633-9.273,9.948-11.999
			c-0.501-0.077-1.521-0.241-2.022-0.318c2.523-0.684,5.133-0.867,7.742-0.896c4.208,9.562,6.327,19.828,9.341,29.785
			c-0.231-3.053-0.732-6.057-1.146-9.071c1.252-7.078-2.051-14.695,1.637-21.34c2.022-3.236,5.296-7.126,9.562-6.182
			c1.262,0.154,2.523-0.01,3.736-0.356c0.254,8.58-2.32,13.518-2.533,26.598c3.748-6.392,13.618-20.535,20.463-23.4
			c2.167-1.05,4.016,0.915,5.797,1.849c-0.048-0.404-0.135-1.204-0.183-1.599c1.416,10.217-0.549,20.617,0.857,30.854
			c2.522,15.316,38.42,26.544,58.867,14.945c11.317-6.338,36.965-47.219,64.905-66.388c5.547,0.876,11.074-0.664,16.64-0.366
			c7.771,0.299,15.427,2.099,23.237,1.791c0.337-4.892-1.859-9.437-2.427-14.223c-1.223-7.222,0.664-14.445,0.963-21.657
			C443.935,743.375,469.984,723.961,499.008,718.01 M554.534,779.593c6.745,9.929,22.133,10.327,29.631-0.116
			C571.092,783.149,568.836,783.566,554.534,779.593 M553.369,794.558c-4.719,0.867-10.073,2.013-13.125,6.067
			c-1.589,1.888-0.559,4.69,1.213,6.067c10.372,8.319,41.784,6.333,43.093-3.881c-0.414-2.889-3.014-4.719-5.508-5.788
			C571.02,793.469,561.92,793.508,553.369,794.558 M412.138,922.885c-6.81,14.012-10.92,16.903-25.663,26.376
			c-3.187,2.138-6.539,4.468-8.272,8.012c-1.955,4.641,0.741,10.121,4.959,12.471c4.064,2.234,8.821,2.321,13.27,3.188
			c5.99,0.982,11.363,3.91,16.948,6.115c89.9,36.729,158.607-20.137,143.889-78.396c-0.703-3.101-1.579-6.211-3.467-8.821
			c0.587,5.672,2.35,11.19,2.234,16.939c0.896,20.579-9.553,40.667-25.519,53.311c0.501-2.581,2.667-4.189,4.439-5.913
			c12.281-11.518,19.083-29.183,18.932-39.79c-2.433,4.562-7.665,25.444-35.207,38.972c-21.47,11.214-56.456,9.039-76.413,9.264
			c-8.571,0.27-17.074-0.876-25.615-1.367c-7.376-1.348-14.868-1.984-22.36-1.416c0.164,0.51,0.491,1.541,0.655,2.051
			c-3.361-0.462-7.155-0.414-9.572-3.197c5.452-6.479,19.834-12.356,27.435-25.586c8.898-16.043,11.719-34.629,20.348-50.788
			c1.984-3.862,4.969-7.049,7.386-10.622C428.657,879.643,419.259,908.004,412.138,922.885z"/>
		<path fill="#F9BB5B" stroke="#F9BB5B" stroke-width="0.4815" d="M760.573,717.673c44.744-8.551,88.417,14.148,107.931,51.26
			c3.998,26.303-0.525,27.218-1.329,35.486c0.973,2.72,8.445,0.43,18.451-0.231c7.338-0.645,14.714-0.058,22.023,0.703
			c15.026,7.209,43.351,43.977,58.309,60.658c12.491,13.636,38.825,11.804,54.803,2.552c15.196-9.336,9.729-15.935,10.901-44.403
			c3.274,0.742,6.905,0.915,9.611,3.159c6.885,5.393,10.814,13.462,16.737,19.76c0.303-10.429-3.369-17.114-2.147-25.548
			c2.619,0.462,5.402,0.491,7.877,1.589c9.544,5.654,5.889,17.005,6.972,25.577c-0.443,3.168-0.944,6.317-1.348,9.495
			c3.207-9.745,5.027-19.963,9.408-29.303c2.629,0.135,5.296,0.356,7.868,1.04c-0.539,0.048-1.618,0.135-2.157,0.183
			c7.018,5.624,14.408,6.939,6.683,19.221c-3.573,5.73-7.405,11.373-9.803,17.729c2.34-2.013,4.632-4.102,6.722-6.375
			c5.017-2.08,7.694-7.299,12.403-9.851c0.924-0.587,2.051-0.077,3.062,0c-2.995,6.182-0.058,13.029-1.127,19.51
			c-1.261,7.29-4.728,14.445-10.67,19.057c-7.501,5.932-14.31,12.654-21.359,19.096c-3.005,2.687-5.316,6.038-6.934,9.716
			c-2.09,1.772-4.276,3.438-6.587,4.911c-17.374,4.947-79.431,47.437-118.36,65.338c-48.174,21.583-113.54,31.506-163.909,14.06
			c-30.216-10.84-40.459-23.478-48.64-29.679c-8.917-12.731-16.14-26.896-19.491-42.14c1.649-8.127-0.194-25.131,10.477-40.532
			c2.311-3.322,5.489-5.884,8.426-8.609c-20.507-4.191-29.525-18.767-40.763-29.13c-4.333-10.487-5.884-21.898-6.413-33.155
			c10.891-12.099,11.385-24.834,7.473-39.415C697.903,747.815,727.283,723.75,760.573,717.673 M715.323,779.564
			c6.577,10.179,23.14,9.938,29.708-0.125C731.902,783.283,729.01,783.413,715.323,779.564 M728.641,794.577
			c-25.591,4.955-13.328,19.944,16.929,16.727c5.2-0.818,11.19-2.157,14.194-6.943c1.165-3.081-1.743-5.508-4.16-6.75
			C747.323,793.402,737.635,793.518,728.641,794.577 M856.332,872.02c3.13,3.64,6.933,6.789,9.168,11.142
			c8.609,15.437,11.585,33.223,19.394,49.035c7.738,16.287,23.835,21.424,28.504,28.466c-1.3,3.236-5.816,2.253-8.599,3.274
			c0.482-0.693,0.982-1.387,1.502-2.061c-6.972-0.453-14.002-0.414-20.858,1.069c-15.419,1.906-46.891,2.828-76.634,0.183
			c-8.233-0.876-16.525-2.34-24.084-5.836c-23.343-10.394-33.218-23.737-39.848-43.835c0.52,14.05,6.288,27.743,15.466,38.356
			c1.002,0.934,1.329,2.196,1.098,3.553c-9.716-10.4-16.342-23.757-17.902-37.961c-1.3-9.495,0.751-18.961,3.024-28.129
			c-4.486,6.442-8.719,23.212-5.152,40.089c7.293,34.839,39.357,55.654,75.064,60.745c34.34,4.072,57.845-6.358,79.773-15.379
			c5.576-2.321,11.768-2.051,17.469-3.871c5.258-1.762,9.745-7.771,7.531-13.376c-4.948-9.341-21.181-12.526-29.91-26.886
			c-8.493-14.339-12.788-30.748-21.571-44.933C866.367,880.224,862.303,874.793,856.332,872.02z"/>
		<path fill="#DFA842" stroke="#DFA842" stroke-width="0.4815" d="M868.504,768.933c4.719,8.06,7.425,17.035,10.063,25.943
			c10.506-0.52,20.521,3.534,29.13,9.264l-0.048,0.751c-22.499-2.342-26.198,0.315-36.844,0.79c-1.348-0.019-3.062,0.327-3.63-1.261
			C867.972,796.226,872.492,795.167,868.504,768.933z"/>
		<path fill="#ED4D78" stroke="#ED4D78" stroke-width="0.4815" d="M420.901,794.827c2.282-8.648,5.036-17.247,9.476-25.066
			c-0.299,7.213-2.186,14.435-0.963,21.657c0.568,4.786,2.764,9.331,2.427,14.223c-7.81,0.308-15.466-1.493-23.237-1.791
			c-5.566-0.299-11.094,1.242-16.64,0.366C401.701,797.327,411.249,794.57,420.901,794.827z"/>
		<path fill="#D43322" stroke="#D43322" stroke-width="0.4815" d="M613.661,779.371c13.106-1.868,26.53,3.842,35.861,12.904
			c9.639-8.792,22.89-14.907,36.15-12.875c3.93,14.647,3.385,27.353-7.473,39.415c-10.477-6.972-20.425-15.032-28.562-24.672
			c-6.209,8.03-21.031,20.157-28.485,24.595C612.213,808.681,608.618,796.268,613.661,779.371z"/>
		<path fill="#3A2018" stroke="#3A2018" stroke-width="0.4815" d="M554.534,779.593c14.217,3.949,16.448,3.587,29.631-0.116
			C576.671,789.914,561.282,789.527,554.534,779.593z"/>
		<path fill="#3B2317" stroke="#3B2317" stroke-width="0.4815" d="M715.323,779.564c13.687,3.849,16.579,3.719,29.708-0.125
			C738.463,789.502,721.9,789.743,715.323,779.564z"/>
		<path fill="#F0778E" stroke="#F0778E" stroke-width="0.4815" d="M584.55,802.81c-1.31,10.215-32.718,12.202-43.093,3.881
			c-1.772-1.377-2.802-4.179-1.213-6.067C547.908,790.445,583.057,792.396,584.55,802.81z"/>
		<path fill="#FBDC7E" stroke="#FBDC7E" stroke-width="0.4815" d="M759.765,804.361c-3.005,4.786-8.994,6.125-14.194,6.943
			c-26.647,2.833-33.996-7.331-29.631-11.199C726.579,789.187,763.621,794.162,759.765,804.361z"/>
		<path fill="#ED4D78" stroke="#ED4D78" stroke-width="0.4815" d="M225.493,824.044c4.757-4.266,12.904-7.887,18.297-2.687
			c-1.213,0.347-2.475,0.51-3.736,0.356c-4.266-0.944-7.54,2.947-9.562,6.182c-3.688,6.645-0.385,14.262-1.637,21.34
			C226.937,840.973,225.57,832.538,225.493,824.044z"/>
		<path fill="#DFA841" stroke="#DFA841" stroke-width="0.4815" d="M1055.862,821.069c1.608-1.261,3.438-2.513,5.614-2.263
			c4.497,0.183,9.399,1.849,12.182,5.585c0.453,8.012-1.473,15.995-2.947,23.843c-1.083-8.571,2.573-19.923-6.972-25.577
			C1061.264,821.56,1058.481,821.531,1055.862,821.069z"/>
		<path fill="#ED4D78" stroke="#ED4D78" stroke-width="0.4815" d="M249.317,827.492c4.622-4.459,11.623-5.316,17.757-4.555
			c0.309,2.121,0.328,2.503,0.443,3.467c-3.669-1.924-4.444-5.231-13.78,4.565c-4.651,5.268-8.917,10.911-12.48,16.987
			c0.019-1.184,0.038-2.359,0.077-3.515C243.703,838.691,245.243,832.345,249.317,827.492z"/>
		<path fill="#DFA842" stroke="#DFA842" stroke-width="0.4815" d="M1031.662,823.697c5.961-2.282,13.125-0.52,17.989,3.428
			c4.478,5.2,6.375,12.076,8.387,18.499l-0.029,0.992c-5.922-6.298-9.851-14.368-16.737-19.76
			C1038.567,824.612,1034.936,824.439,1031.662,823.697z"/>
		<path fill="#ED4D78" stroke="#ED4D78" stroke-width="0.4815" d="M212.916,829.418c0.501,0.077,1.522,0.241,2.022,0.318
			c-4.314,2.725-10.824,5.903-9.948,11.999c2.841,8.465,9.331,15.148,12.211,23.651c-0.491-0.106-1.483-0.318-1.974-0.424
			C190.33,834.667,200.048,833.178,212.916,829.418z"/>
		<path fill="#DFA842" stroke="#DFA842" stroke-width="0.4815" d="M1084.482,829.649c0.539-0.048,1.618-0.135,2.157-0.183
			c3.428,0.867,6.847,1.964,9.967,3.688c8.409,4.218-3.169,19.62-8.522,27.069c-2.09,2.273-4.382,4.362-6.722,6.375
			c5.39-14.287,16.198-22.264,12.249-29.477C1091.329,833.818,1087.535,832.095,1084.482,829.649z"/>
		<path fill="#ED4D78" stroke="#ED4D78" stroke-width="0.4815" d="M188.533,860.166c2.475-4.112,5.008-8.648,9.639-10.622
			c-2.822,4.141-1.156,9.302-1.483,13.944c-0.289,6.471,1.512,12.875,4.622,18.518c2.398,4.218,6.529,6.982,10.198,10.005
			c6.259,4.93,11.488,10.988,17.247,16.467c2.706,2.754,6.067,5.335,6.933,9.331c-10.121-7.434-20.049-15.138-29.881-22.948
			c-14.777-12.031-22.712-18.495-22.129-22.399C184.287,868.043,186.396,864.008,188.533,860.166z"/>
		<path fill="#DFA842" stroke="#DFA842" stroke-width="0.4815" d="M1102.422,869.882c1.069-6.481-1.868-13.328,1.127-19.51
			c4.642,4.93,8.243,10.805,10.766,17.074c3.043,8.452,1.099,8.797-14.782,22.524c-11.806,9.534-23.661,19.048-36.073,27.782
			c1.618-3.679,3.929-7.03,6.934-9.716c7.049-6.442,13.857-13.164,21.359-19.096
			C1097.694,884.327,1101.161,877.172,1102.422,869.882z"/>
		<path fill="#DFA842" stroke="#DFA842" stroke-width="0.4815" d="M684.613,851.971c11.233,10.359,20.257,24.94,40.763,29.13
			c-3.976,3.689-13.714,10.467-16.948,30.892c-1.194,6.028-0.732,12.22-1.955,18.248c-3.688-14.04-4.343-28.774-2.745-43.161
			c0.453-2.176-0.751-4.045-2.128-5.566C694.157,872.848,688.465,862.708,684.613,851.971z"/>
		<path fill="#ED4D78" stroke="#ED4D78" stroke-width="0.4815" d="M606.227,860.84c2.571-2.542,4.362-6.192,8.012-7.376
			c-3.775,9.909-9.081,19.269-15.918,27.387c-1.29,1.685-3.139,3.399-2.696,5.749c1.55,15.215,0.992,30.835-3.332,45.588
			c-0.497-4.887,0.972-22.131-7.213-38.202c-2.552-5.104-7.155-8.657-10.814-12.904C586.957,878.318,597.444,870.036,606.227,860.84
			z"/>
		<path fill="#DE961B" stroke="#DE961B" stroke-width="0.4815" d="M856.332,872.02c16.49,7.66,23.685,39.468,35.004,58.578
			c8.792,14.463,24.915,17.455,29.91,26.886c2.215,5.605-2.273,11.614-7.531,13.376c-5.701,1.82-11.893,1.55-17.469,3.871
			c-18.097,7.445-43.739,19.652-79.773,15.379c-35.755-5.098-67.779-25.943-75.064-60.745c-3.602-17.041,0.772-33.799,5.152-40.089
			c-2.273,9.168-4.324,18.634-3.024,28.129c1.56,14.204,8.185,27.561,17.902,37.961c9.033,10.535,21.802,16.987,34.821,21.195
			c33.423,11.127,65.378,3.99,97.743-10.66c3.621-0.501,7.203-1.223,10.795-1.964c2.783-1.021,7.299-0.039,8.599-3.274
			c-4.526-6.825-20.837-12.328-28.504-28.466c-7.81-15.812-10.785-33.598-19.394-49.035
			C863.266,878.809,859.462,875.66,856.332,872.02z"/>
		<path fill="#AC3152" stroke="#AC3152" stroke-width="0.4815" d="M440.546,873.686c-2.417,3.573-5.402,6.76-7.386,10.622
			c-8.628,16.159-11.45,34.744-20.348,50.788c-7.623,13.267-21.948,19.066-27.435,25.586c4.035,4.646,11.072,1.245,24.7,7.28
			c34.109,14.643,66.631,20.013,100.863,5.624c31.231-13.225,46.169-40.178,45.096-64.818c0.116-5.749-1.647-11.267-2.234-16.939
			c4.224,5.84,10.256,30.178-1.252,52.935c-16.16,33.557-55.613,46.833-85.234,46.194c-34.266,0.23-60.172-16.27-70.885-18.027
			c-4.449-0.867-9.206-0.953-13.27-3.188c-4.218-2.35-6.914-7.829-4.959-12.471c3.708-7.581,15.884-10.727,25.336-20.829
			C415.993,923.508,424.848,881.552,440.546,873.686z"/>
		<path fill="#DFA842" stroke="#DFA842" stroke-width="0.4815" d="M744.877,913.457c6.512,19.741,16.19,33.301,39.848,43.835
			c7.559,3.496,15.851,4.959,24.084,5.836c29.735,2.645,61.204,1.724,76.634-0.183c6.856-1.483,13.886-1.521,20.858-1.069
			c-0.52,0.674-1.021,1.367-1.502,2.061c-3.592,0.741-7.174,1.464-10.795,1.964c-6.153,0.424-11.556,3.621-17.343,5.412
			c-29.991,10.371-44.263,8.306-55.323,10.314c-16.191-0.364-45.506-9.476-59.897-26.261c0.231-1.358-0.096-2.619-1.098-3.553
			C751.165,941.201,745.397,927.507,744.877,913.457z"/>
		<path fill="#ED4D78" stroke="#ED4D78" stroke-width="0.4815" d="M553.889,916.375c0.151,10.611-6.654,28.275-18.932,39.79
			c-1.772,1.724-3.939,3.332-4.439,5.913c-5.788,4.95-12.596,8.551-19.577,11.508c-34.226,14.386-66.745,9.023-100.863-5.624
			c-4.805-2.128-9.938-3.419-15.128-4.083c-0.164-0.51-0.491-1.541-0.655-2.051c7.492-0.568,14.984,0.067,22.36,1.416
			c8.542,0.491,17.045,1.637,25.615,1.367c20.159-0.227,54.962,1.94,76.413-9.264C546.101,941.879,551.278,921.27,553.889,916.375z"
			/>
		<path fill="#DFA842" stroke="#DFA842" stroke-width="0.4815" d="M1056.873,922.663c-17.844,13.578-36.333,26.299-53.821,40.33
			c-30.303,23.741-58.965,43.26-94.7,54.688c-23.398,7.347-35.461,7.082-43.922,9.081c-8.729-0.28-59.375,5.838-101.922-20.28
			c-14.32-8.676-27.435-19.934-36.545-34.099c7.963,6.036,18.355,18.814,48.64,29.679c50.315,17.428,115.824,7.484,163.909-14.06
			C977.512,970.068,1039.458,927.622,1056.873,922.663z"/>
		<path fill="#ED4D78" stroke="#ED4D78" stroke-width="0.4815" d="M243.539,923.356c14.275,4.034,62.073,34.712,89.48,50.383
			c39.16,21.654,68.99,32.365,119.959,36.815c82.905,4.646,111.664-33.446,118.793-35.784
			c-29.569,41.771-83.321,56.387-137.572,51.491c-69.229-6.638-109.392-41.752-152.45-74.506
			C269.058,942.231,255.942,933.256,243.539,923.356z"/>
		<path fill="#F7B959" stroke="#F7B959" stroke-width="0.4815" d="M876.661,971.313c5.787-1.791,11.19-4.988,17.343-5.412
			c-22.678,10.265-47.504,17.883-72.667,15.726C832.291,979.638,846.781,981.645,876.661,971.313z"/>
		<path fill="#C64061" stroke="#C64061" stroke-width="0.4815" d="M434.2,1026.261c22.726,2.051,45.828,0.78,67.958-4.969
			c-6.808,9.63-16.698,16.939-27.888,20.675C469.747,1041.75,451.901,1043.017,434.2,1026.261z"/>
		<path fill="#C69439" stroke="#C69439" stroke-width="0.4815" d="M797.359,1021.398c34.881,8.501,56.629,5.029,67.072,5.364
			c-8.301,7.781-18.971,13.193-30.247,14.878c-3.033,0.183-6.076,0.154-9.091-0.067
			C813.759,1038.625,804.013,1030.873,797.359,1021.398z"/>
		<path fill="#351F15" d="M889.815,1111.263c-15.86-0.038-31.74,0.298-47.581-0.154l-0.193-1.03
			c-1.107-9.832-11.325-15.263-20.155-16.804c8.975-15.523,13.289-33.733,12.297-51.635c-3.033,0.183-6.076,0.154-9.091-0.067
			c1.312,22.46-7.59,44.131-14.271,50.874c-6.75,0.867-13.665,1.868-19.693,5.258c-5.662,2.966-10.525,7.531-13.54,13.203
			c-5.535,0.756-254.879,0.311-255.893,0.308l0.626,0.424c271.54-0.161,252.017-0.569,254.911,1.194
			c1.252,1.358,1.878,3.871,4.073,3.929c5.712,0.722,5.463-7.379,15.456-11.45c-1.104,1.959-2.122,3.956-3.073,6.002l10.159-0.123
			c1.516-2.131,5.033-8.432,16.642-7.525c9.334,1.922,9.674,6.657,15.928,10.044c1.878-0.096,3.669-0.761,5.499-1.165
			c4.998-1.521,10.256-0.896,15.398-0.924c10.901,0.154,21.821-0.347,32.712,0.308L889.815,1111.263z"/>
		<path fill="#351F15" d="M505.142,1096.269c-5.441-2.407-11.373-3.159-17.218-3.871c-10.053-14.599-14.637-32.809-13.655-50.431
			c-3.014-0.145-6.028-0.193-9.033-0.376c-1.387,17.921,3.486,35.987,11.999,51.703c-7.964,1.473-16.294,5.739-19.433,13.646
			c0.424,1.252,0.867,2.523,1.531,3.708c3.245,1.743,6.596-0.462,9.408-2.022c10.441-8.78,22.446-4.926,26.892,2.554l9.927,0.192
			c-0.892-1.98-1.83-3.933-2.787-5.857c3.072,1.136,5.614,3.293,8.041,5.451c3.457,0.164,6.972,0.25,10.314-0.79
			C517.863,1103.665,511.681,1099.11,505.142,1096.269z"/>
		<path fill="#FFFEFE" stroke="#FFFEFE" stroke-width="0.4815" d="M415.046,1109.125c5.108,1.159,3.6,1.125,42.467,0.925
			l-0.106,1.127c-14.406,0.299-28.822,0.048-43.228,0.115C414.391,1110.753,414.834,1109.674,415.046,1109.125z"/>
		<path stroke="#000000" stroke-width="0.4815" d="M522.322,1111.639c271.54-0.161,252.017-0.569,254.911,1.194
			C508.365,1112.554,525.141,1113.552,522.322,1111.639z"/>
		<path stroke="#000000" stroke-width="0.4815" d="M841.916,1112.544c4.998-1.521,10.256-0.896,15.398-0.924
			c10.901,0.154,21.821-0.347,32.712,0.308l0.222,0.751C874.138,1112.833,858.018,1112.977,841.916,1112.544z"/>
		<path fill="#FFFFFF" stroke="#FFFFFF" stroke-width="0.4815" d="M354.648,1163.543c194.724-0.106,389.449,0,584.174-0.058
			c0.327,0.298,0.992,0.896,1.329,1.194c-24.114,0.195,9.203,0.144-580.745,0.144
			C357.739,1164.709,356.198,1164.063,354.648,1163.543z"/>
	</g>
	<g>
		<g>
			<path fill="#B8B7B7" d="M385.511,591.137c3.467-0.751,7.001-1.233,10.564-1.059c-0.031,14.248-0.188,195.886,0.183,211.211
				c-1.259,0.782-8.208,5.543-10.641,7.482C385.338,736.23,385.55,663.679,385.511,591.137z"/>
			<path fill="#B8B7B7" d="M908.208,592.177c3.736,0.78,7.531,1.339,11.267,2.176c-2.068,8.073,0.01,7.488-0.992,218.424
				c-3.39-2.918-6.779-5.942-10.834-7.887C908.572,790.497,907.986,834.593,908.208,592.177z"/>
			<path fill="#B8B7B7" d="M908.353,1017.68c3.553-1.136,7.078-2.388,10.583-3.707c-1.001,19.154,0.453,38.375-0.751,57.519
				c-3.274-0.347-6.568-0.356-9.832,0.019C908.073,1053.571,908.064,1035.621,908.353,1017.68z"/>
			<path fill="#B8B7B7" d="M385.396,1015.803c3.563,1.223,7.136,2.427,10.757,3.476c-0.356,17.411,0.106,34.841-0.25,52.251
				c-3.438-0.414-6.924-0.414-10.362,0.029C385.367,1052.974,385.646,1034.388,385.396,1015.803z"/>
		</g>
		<path fill="#20120A" d="M936.578,1111.263c9.4-17.99-1.45-36.478-18.393-39.771c-24.595-2.604-37.336,19.725-29.063,37.797
			c0.787,2.23,0.734,2.057,1.127,3.39c-16.111,0.154-32.231,0.298-48.332-0.135c-1.83,0.405-3.621,1.069-5.499,1.165
			c-1.618-0.876-3.024-2.061-4.401-3.245c-3.014,1.098-6.24,0.847-9.379,0.857c-6.269-0.087-12.538,0.087-18.807-0.106
			c0.005-0.007,0.012-0.017,0.017-0.024l-10.159,0.123c-0.003,0.006-0.006,0.011-0.008,0.017c-1.666-0.029-3.322-0.058-4.969-0.087
			c-1.984,2.302-3.823,5.97-7.405,5.518c-2.196-0.058-2.822-2.571-4.073-3.929c-268.902-0.279-251.779,0.926-255.537-1.618
			c-0.144-0.26-0.424-0.78-0.568-1.04c-3.342,1.04-6.856,0.953-10.314,0.79c-1.733,0.241-3.476,0.366-5.21,0.501
			c-0.014-0.032-0.029-0.063-0.044-0.094l-9.927-0.192c0.007,0.012,0.016,0.024,0.024,0.036c-9.476,0.231-18.961,0.115-28.446,0.067
			c0.385-0.664,1.146-1.993,1.531-2.658c-2.812,1.56-6.163,3.765-9.408,2.022c-0.664-1.184-1.107-2.456-1.531-3.708
			c-0.144,1.456-0.224,2.416-0.395,4.237c-14.406,0.299-28.822,0.048-43.228,0.115c0.212-0.539,0.655-1.618,0.867-2.167
			c7.871-16.805-3.873-40.869-29.506-37.566c-17.078,3.699-27.076,21.847-18.181,39.752c-5.614,0.173-11.46-0.635-16.843,1.348
			c-20.902,7.697-23.202,43.504,4.131,50.884c194.724-0.106,389.449,0,584.174-0.058
			C966.402,1158.936,966.945,1114.433,936.578,1111.263z M390.278,1110.782c-7.453-0.096-13.703-7.714-12.23-15.051
			c0.867-5.268,5.325-9.668,10.574-10.554c7.405-1.444,15.013,4.824,15.042,12.355
			C403.991,1104.686,397.452,1111.225,390.278,1110.782z M912.282,1110.753c-6.953-0.453-12.731-7.299-11.739-14.262
			c0.424-5.393,4.815-10.025,10.034-11.18c7.502-1.916,15.677,4.401,15.629,12.162
			C926.688,1104.888,919.639,1111.552,912.282,1110.753z"/>
		<g>
			<g>
				<path fill="#858787" d="M1060.975,1108.875c1.184,4.776,0.51,9.745,0.655,14.618c-0.106,4.536,0.472,9.177-0.655,13.646
					C1060.167,1127.759,1060.109,1118.254,1060.975,1108.875z"/>
				<g>
					<path fill="#929191" d="M1062.093,657.516c-0.751-3.679-0.674-7.453-0.53-11.18c-2.648,1.57-6.019,3.707-9.013,1.695
						c-3.948-3.322-2.879-9.225-1.493-13.559c2.013-6.866,7.251-11.912,11.931-17.035c-1.868-7.656-0.298-15.581-1.05-23.343
						c-5.796-80.062-30.176-169.982-70.904-240.823C943.7,270.458,880.209,218.809,803.368,187.648
						c79.344,14.14,161.402,45.196,228.516,94.892c13.578,9.88,26.193,20.964,38.808,32.019c1.233-4.391,3.168-8.638,6.096-12.172
						c-4.141-3.274-7.974-6.914-12.008-10.313C963.111,204.922,831.524,169.332,698.346,161.85
						c-403.369-19.648-518.244,186.933-533.184,197.276c4.536,1.839,8.359,5.104,11.142,9.1c3.917-7.537,24.909-32.434,44.673-51.51
						c74.194-71.871,171.444-112.009,271.397-130.003c-9.245,4.256-18.846,7.733-27.917,12.384
						c-91.51,44.01-153.242,123.837-188.725,216.7c-26.009,67.724-38.654,144.213-38.654,192.625
						c11.941,12.671,11.159,17.093,12.22,23.121c1.483-12.259-0.491-24.681,1.069-36.95c6.486-102.13,40.231-214.5,106.949-295.616
						c43.625-52.981,99.24-89.464,164.882-108.634c15.899-4.487,32.01-8.542,48.419-10.651
						c-13.304,9.375-89.872,43.941-131.909,217.865c4.661-0.944,9.495-0.79,14.098,0.395c1.222-8.314,14.948-61.901,38.394-108.663
						c27.806-55.255,70.293-104.692,132.044-113.584c-42.795,62.074-51.751,268.797-54.38,347.299
						c11.352,23.657,8.262,23.97,11.902,38.346c2.21-57.592,6.452-261.749,40.359-352.971c5.187-13.278,16.016-37.232,30.074-34.465
						c59.033,12.369,70.087,391.509,67.534,433.14c-27.445,14.156-52.434,32.809-74.352,54.524
						c-9.714-8.816-28.344-28.234-64.019-48.862c-0.231-12.567,0.01-25.144,0.125-37.711c-0.212-0.298-0.626-0.905-0.828-1.213
						c-0.857,2.282-0.876,5.807-3.91,6.288c-3.602,1.175-6.269-2.08-8.311-4.487c-0.01,9.948-0.308,19.895-0.26,29.843
						c-16.586-7.429-64.081-32.389-140.441-31.576c0.359-18.69,5.173-72.903,14.618-124.446c-4.478-1.136-8.811-2.956-12.596-5.614
						c-8.06,43.171-12.885,86.899-15.504,130.725c-63.626,4.953-118.805,27.73-162.185,61.92c-0.183,0.202-0.53,0.607-0.703,0.809
						c-0.318-1.213-0.636-2.417-0.944-3.621c-1.03,1.897-1.502,4.68-3.967,5.19c-2.889,0.992-5.701-0.607-8.32-1.637
						c-0.183,4.285,1.522,9.851-2.504,12.846c-63.172,56.169-101.651,138.949-100.526,227.899
						c1.184,79.232,49.205,162.115,100.044,217.72c3.544,3.756,4.574,8.965,6.625,13.549c11.43,26.398-1.352,50.027-3.698,55.747
						c0.308,77.886-0.144,155.781,0.231,233.667c2.947,13.983,7.001,28.09,5.383,42.545c-0.462,9.042-3.63,17.574-5.383,26.376
						c-0.308,17.189-0.048,34.398-0.144,51.596c4.42,0.26,8.84-0.038,13.251-0.26c-0.043-32.045-0.156-371.175,0.144-403.354
						c9.882,9.377,55.375,63.507,161.656,143.109c0.462,27.146,0.029,54.302,0.212,81.449c4.228-1.666,8.802-2.234,13.318-2.128
						c-0.273-8.129-0.236-62.589-0.029-69.132c45.742,33.3,93.014,64.462,141.375,93.814c0.308,52.155-0.164,104.32,0.241,156.475
						c4.256,0.154,8.522,0.145,12.788-0.01c0.404-49.44,0.019-98.889,0.193-148.328c6.385,2.976,12.182,7.01,18.364,10.381
						c10.246,5.787,20.377,11.825,30.854,17.199c5.335,2.234,10.766,4.353,15.716,7.386c17.44-9.514,34.764-19.231,51.885-29.323
						c7.29-4.083,14.185-8.86,21.677-12.586c0.257,18.187,0.26,141.498-0.019,155.339c4.449,0.154,8.898,0.077,13.347-0.058
						c0-173.359-0.195-160.97,0.539-163.909c0,0,72.469-44.332,140.971-95.797c0.106,52.242,0.058,104.484,0.029,156.725
						c3.967-3.476,8.956-5.643,14.165-6.356c-0.472-1.666-0.944-3.342-0.982-5.046c0.188-164.795-1.053-154.903,2.224-157.005
						c99.788-76.569,143.47-128.675,159.624-145.535c2.523-7.386,4.613-14.945,8.012-22.004
						c9.707-19.568,25.144-36.362,44.21-47.119c27.079-42.111,48.245-89.422,52.694-139.767
						C1159.545,810.871,1129.686,723.121,1062.093,657.516z M675.321,176.063c65.84,11.273,109.113,66.912,137.215,127.509
						c31.016,67.648,41.63,136.018,44.731,146.903c4.102-1.127,8.474-1.377,12.702-0.867c-0.257-5.306-18.78-119.304-71.646-199.328
						c-33.544-50.337-65.308-65.038-72.137-70.24c152.469,25.701,247.749,129.357,294.807,274.257
						c19.671,60.531,28.388,123.114,27.955,152.074c-0.096,12.962,0.173,25.933-0.116,38.885
						c-11.065-8.715-22.129-17.497-34.138-24.912c-61.837-39.368-117.808-42.894-129.04-45.019
						c-1.088-25.712-4.131-51.298-7.309-76.827c-3.823,2.311-8.368,3.255-12.769,3.659c2.696,24.075,5.672,48.139,7.049,72.339
						c-48.744-2.262-94.298,5.203-140.422,26c-0.144-27.878-1.079-55.747-2.205-83.596c-0.366-1.512-0.722-3.024-1.079-4.536
						c-1.926-0.308-3.929-0.337-5.739-1.098c-3.245-2.59-2.61-7.165-2.696-10.824c0.404-17.642-1.695-35.813,4.112-52.839
						c1.493-3.814,0.973-7.954,1.136-11.941C721.607,372.78,710.616,228.432,675.321,176.063z M1101.324,1006.346
						c-86.775,150.329-302.608,300.435-454.961,383.767c-2.379,1.859-4.94-0.164-7.116-1.271
						c-143.078-78.77-325.004-204.122-421.786-335.224c-69.727-95.046-79.831-166.544-63.277-242.315
						c24.368-110.034,114.928-200.642,231.327-220.167c3.467-0.751,7.001-1.232,10.564-1.059l0.01-0.732
						c59.642-6.508,117.38,1.909,172.701,32.019c45.408,24.825,68.797,53.064,75.565,59.137
						c172.89-185.556,470.261-76.155,495.358,163.726C1144.872,893.095,1138.234,942.193,1101.324,1006.346z"/>
					<path fill="#929191" d="M1100.824,345.77c4.526-0.973,8.831-2.918,12.49-5.778c13.235,16.669,52.642,61.949,81.911,139.372
						c12.933,34.6,22.399,70.635,26.569,107.382c1.509,11.916,0.887,773.097,0.414,777.868c-4.208-0.53-8.484-0.443-12.644,0.318
						c-0.069-26.815-0.135-208.188,0.058-223.238c13.178-19.305,11.514-31.689,11.623-39.386
						c-0.192-11.203,1.652-18.567-11.614-39.386c-0.571-466.936,0.657-460.644-0.664-471.967
						c-2.677-24.594-7.877-48.881-14.84-72.609c4.776-18.537,1.907-39.097-8.763-55.111c-4.237-6.211-8.705-12.48-14.743-17.064
						c-2.379-1.849-4.661-3.794-6.905-5.778C1146.999,406.274,1125.563,374.572,1100.824,345.77z"/>
					<path fill="#929191" d="M137.303,402.99c3.409,2.658,7.328,4.632,11.421,5.999c-3.688,6.885-7.531,13.694-11.017,20.685
						c-22.467,15.416-22.739,24.702-27.849,30.016C111.729,451.604,126.794,420.656,137.303,402.99z"/>
					<path fill="#9C9A9A" d="M736.268,426.612c12.538-12.942,32.096-19.269,49.719-14.734c13.212,3.486,23.266,15.697,24.681,29.217
						c1.993,16.698-6.895,33.878-21.147,42.583c-20.773,13.066-51.25-2.652-47.302-26.212c1.82-12.586,12.779-23.208,25.5-24.325
						c6.192-0.443,12.769,0.636,18.075,3.996c4.43,2.966,2.639,10.862-2.696,11.546c-4.603,0.029-8.763-2.812-13.424-2.465
						c-9.601,0.154-17.661,11.344-13.357,20.319c4.767,8.156,16.371,11.055,24.672,6.77c20.062-10.121,23.769-42.123,1.859-48.64
						c-15.12-4.635-37.955,3.959-44.836,23.892c-6.462,17.854-4.343,37.171-4.497,55.776c0.27,4.603-4.43,7.81-3.515,12.567
						c-0.366-1.512-0.722-3.024-1.079-4.536c-1.926-0.308-3.929-0.337-5.739-1.098c-3.245-2.59-2.61-7.165-2.696-10.824
						c0.404-17.642-1.695-35.813,4.112-52.839c1.493-3.813,0.973-7.954,1.136-11.941c0.183,2.022,0.433,4.035,0.703,6.057
						C729.238,436.406,731.963,430.917,736.268,426.612z"/>
					<path fill="#9C9A9A" d="M158.113,422.288c45.994-8.61,80.892,42.631,54.64,76.807c-41.183,53.473-82.373-4.111-61.679-29.881
						c5.45-6.924,14.772-10.102,23.381-9.196c5.19,0.693,6.885,8.272,2.812,11.363c-2.793,1.724-6.279,1.416-9.37,2.205
						c-17.919,2.742-6.811,38.584,12.788,33.935c7.665-1.704,13.703-7.232,18.817-12.904c30.786-33.012-22.188-84.864-63.98-46.685
						c-20.422,18.652-26.928,51.085-9.196,71.848c16.571,19.402,50.939,41.08,80.428,63.046
						c43.228,32.343,41.109,40.569,42.545,48.717c1.483-12.259-0.491-24.681,1.069-36.95c0.203,38.563-0.349,33.774,0.703,41.851
						c-0.183,0.202-0.53,0.607-0.703,0.809c-0.318-1.213-0.636-2.417-0.944-3.621c-1.03,1.897-1.502,4.68-3.967,5.19
						c-2.889,0.992-5.701-0.607-8.32-1.637c-0.327-4.651-0.924-9.601-3.967-13.347c-18.319-23.628-69.428-52.667-103.106-81.757
						c-14.56-13.254-17.717-17.648-24.277-31.287c-0.751-3.524-1.656-7.02-2.167-10.583c-1.107-8.368-0.01-16.785,0.202-25.163
						c0.25-3.101,1.83-5.855,2.841-8.734c0.944-2.263,1.493-4.796,3.197-6.625c5.132-5.337,5.396-14.609,27.849-30.016
						C144.265,426.602,150.89,423.415,158.113,422.288z"/>
					<path fill="#9C9A9A" d="M1142.232,432.13c7.685,1.242,14.483,5.123,21.484,8.262c9.808,8.672,11.318,7.699,21.648,22.842
						c13.936,20.917,15.988,52.731-1.656,73.793c-16.965,20.497-49.301,40.865-82.73,65.541
						c-42.309,31.838-38.715,34.754-38.885,54.948c-0.751-3.679-0.674-7.453-0.53-11.18c-2.648,1.57-6.019,3.707-9.013,1.695
						c-3.948-3.322-2.879-9.225-1.493-13.559c3.127-10.667,19.474-24.702,28.032-31.692c42.382-33.851,93.655-61.329,101.941-87.747
						c10.433-32.953-17.334-71.889-51.173-70.837c-28.559,0.319-52.679,34.955-30.411,59.666
						c8.486,9.677,20.756,18.341,31.153,10.776c10.449-7.499,13.631-24.962,4.468-30.112c-3.765-2.09-8.32-1.435-12.24-3.014
						c-4.661-2.446-3.736-10.477,1.406-11.72c14.784-2.4,30.846,8.757,29.361,27.743c-1.696,22.594-22.465,39.971-44.374,30.295
						c-12.179-5.263-31.12-22.28-31.653-43.758C1076.265,453.429,1107.477,424.659,1142.232,432.13z"/>
					<path fill="#929191" d="M103.82,475.05c-0.212,8.378-1.31,16.794-0.202,25.163c0.51,3.563,1.416,7.059,2.167,10.583
						c-5.268,17.093-8.994,34.638-12.057,52.251c-5.213,33.259-3.91-0.065-3.91,353.405c0.096,62.305-0.193,124.61,0.144,186.915
						c-13.56,25.431-10.493,27.956-13.193,42.545c-0.158-32.324-0.106,1.951-0.106-539.53
						C75.354,562.063,96.677,488.828,103.82,475.05z"/>
					<path fill="#9C9A9A" d="M542.448,501.378c11.373,3.274,19.789,12.259,26.415,21.629c4.131,8.609,8.205,17.42,9.688,26.935
						c1.882,13.407,2.963,7.739,1.936,25.066c-0.212-0.299-0.626-0.905-0.828-1.213c-0.857,2.282-0.876,5.807-3.91,6.288
						c-3.602,1.175-6.269-2.08-8.311-4.488c0.839-29.733-8.848-47.514-19.009-56.142c-15.735-13.582-36.463-3.172-40.368,9.264
						c-2.812,8.282-2.764,19.558,5.046,25.124c8.32,5.903,21.147,0.414,23.449-9.264c2.315-9.261-11.091-6.414-12.384-13.472
						c-1.233-4.276,2.841-8.734,7.174-7.964c7.925,1.31,15.793,6.635,17.94,14.705c5.044,19.186-20.243,40.568-42.15,27.753
						c-7.376-4.208-11.989-12.172-13.318-20.415C488.314,512.259,520.289,494.076,542.448,501.378z"/>
					<path fill="#9C9A9A" d="M1255.026,1519.047c-10.824-0.356-21.677,0.231-32.501-0.25c-4.324-0.366-8.667-0.337-12.991,0.019
						c-18.903,0.327-37.836,0.106-56.739,0.106c7.341-3.243,28.15-9.473,46.396-32.385c4.064-5.094,7.145-10.872,10.458-16.467
						c22.155-43.809,4.08-90.312-23.179-130.686c-36.843-55.231-88.354-124.487-115.76-176.062
						c-11.004-22.834-8.056-16.637-8.561-44.644c0.231-6.953-0.828-14.156,1.55-20.858c6.703-20.935,21.426-38.895,39.723-50.855
						c30.043-18.357,77.803-4.601,97.425,26.665c16.651,25.785,6.401,64.617-20.791,75.103c-29.048,12.19-52.92-18.477-35.823-38.75
						c1.897-2.494,4.767-5.075,3.968-8.551c-0.587-4.719-7.049-6.914-10.496-3.746c-11.392,10.179-15.466,27.695-9.437,41.793
						c6.365,15.687,23.304,26.058,40.137,25.143c16.371-0.693,31.538-9.948,41.216-22.928
						c13.178-19.305,11.514-31.689,11.623-39.386c-0.192-11.203,1.652-18.567-11.614-39.386
						c-22.79-31.205-68.575-47.658-108.701-29.862c-19.067,10.756-34.504,27.551-44.21,47.119
						c-3.399,7.059-5.489,14.618-8.012,22.004c-1.006,13.684-3.722,16.092,0.462,44.114c3.679,10.352,7.848,20.589,13.568,30.006
						c71.724,128.479,151.499,191.31,142.56,263.308c-9.421,60.533-77.672,88.017-112.062,56.527
						c-32.257-29.505-34.217-69.536-18.046-89.249c6.125-7.637,15.543-11.681,24.912-13.655
						c35.917-7.664,52.101,31.594,39.656,40.667c-4.478,3.101-10.256,0.655-15.167,2.109c-4.95,2.109-4.584,10.381,0.655,11.893
						c9.274,2.571,20.589,0.289,26.655-7.636c12.689-16.192,0.757-49.484-26.983-58.588c-14.637-4.747-30.864-2.157-44.47,4.516
						c-7.328,3.525-13.097,9.437-18.239,15.6c-3.727,6.298-7.068,12.942-8.484,20.194c-4.786,19.144,0.231,39.405,9.081,56.594
						c17.786,30.5,34.794,36.49,43.026,40.426c-0.01,0-391.741-0.019-391.741-0.019c-0.221-3.756-0.212-7.569-1.242-11.199
						c-9.812-34.872-89.161-13.58-110.04-41.158c-8.686-11.386-7.283-38.214,4.882-49.661c10.441-9.838,33.462-5.32,39.627,11.864
						c1.31,3.785,1.57,8.282-0.597,11.825c-2.07,3.399-6.105,4.805-8.571,7.839c-2.86,4.516,1.618,11.151,6.914,9.716
						c10.622-3.678,17.7-15.321,16.38-26.463c-1.156-10.554-7.713-19.914-16.197-26.02c-4.95-3.033-10.381-5.152-15.716-7.386
						c-3.024,0.51-6.105,0.53-9.158,0.549c-9.033-0.154-17.854,4.093-23.882,10.737c-8.859,9.832-12.288,23.478-12.384,36.458
						c-0.065,66.66,90.462,41.149,113.054,60.947c3.39,2.947,3.659,7.704,4.016,11.874c-35.981,0.18-506.551,0.127-519.971,0.058
						c9.254-3.63,18.383-7.8,26.289-13.925c13.231-9.659,23.266-23.314,29.14-38.567c0.164,0.26,0.501,0.79,0.674,1.059
						c1.753-8.802,4.921-17.334,5.383-26.376c1.618-14.454-2.436-28.562-5.383-42.545c-0.154,0.279-0.472,0.848-0.626,1.136
						c-16.094-49.081-58.579-84.98-119.188-172.046c-22.033-32.209-28.149-43.304-27.676-70.51
						c0.059-5.387-2.318-29.69,15.071-51.404c41.017-52.392,123.409-27.455,127.181,22.582c2.338,29.69-19.556,51.946-42.092,49.324
						c-15.922-1.521-27.308-18.45-20.107-32.79c1.627-3.428,4.593-5.961,6.394-9.264c2.577-5.746-5.266-12.753-11.277-6.336
						c-8.426,8.58-12.509,21.542-9.408,33.3c6.682,27.475,42.767,39.313,69.575,16.274c17.417-14.674,26.308-44.996,15.62-69.681
						c-2.051-4.584-3.082-9.793-6.625-13.549c-3.082-3.37-5.816-7.039-9.119-10.198c-4.102-2.147-7.415-5.47-11.334-7.887
						c-31.353-19.86-85.38-24.969-123.734,25.798c-4.873,9.139-9.707,18.547-11.354,28.89c-4.774,35.765-1.443,21.708-0.048,47.09
						c2.135,33.442,76.286,117.067,122.068,180.039c87.667,118.711-49.785,188.902-83.847,127.133
						c-7.203-12.865-10.631-27.686-10.911-42.371c-0.078-26.539,10.035-37.862,26.203-43.382
						c20.179-6.99,35.958,9.095,38.442,26.126c1.922,18.489-11.016,12.806-16.698,14.753c-4.786,2.282-4.237,10.236,0.828,11.806
						c7.165,1.733,15.523,0.876,21.272-4.093c25.272-21.146-12.668-90.606-64.828-52.223c-25.542,19.924-21.718,68.009-5.335,96.558
						c6.673,11.777,17.921,20.338,30.353,25.336c-15.437-0.048-30.873-0.222-46.3,0.077c-9.36,0.346-42.858-0.873-48.948,0.395
						c-7.608,1.781-13.395,9.264-13.068,17.112c-0.193,7.791,5.71,15.128,13.26,16.881c4.495,0.778,1212.762,0.532,1215.793,0.221
						c8.185-1.078,14.878-8.821,14.656-17.103C1271.917,1527.57,1264.049,1519.259,1255.026,1519.047z M1061.63,1123.493
						c-0.106,4.536,0.472,9.177-0.655,13.646c-0.809-9.379-0.867-18.884,0-28.264
						C1062.16,1113.651,1061.486,1118.62,1061.63,1123.493z"/>
					<path fill="#929191" d="M1049.169,1146.296c3.679,10.352,7.848,20.589,13.568,30.006c-1.086,5.965-0.533,224.523-0.53,225.492
						c-3.727,6.298-7.068,12.942-8.484,20.194c-4.786,19.144,0.231,39.405,9.081,56.594c-1.069,5.152-0.693,10.429-0.684,15.658
						c0.048,8.291-0.164,16.583,0.154,24.883c-4.449,0.154-8.888,0.135-13.328-0.019
						C1048.91,1122.061,1048.953,1156.482,1049.169,1146.296z"/>
					<path fill="#929191" d="M76.76,1163.668c1.223,5.142,1.512,10.42,1.801,15.677c0.693,10.863,6.596,20.3,11.248,29.843
						c-0.096,43.084,0.241,86.167-0.164,129.251c-4.285-0.597-8.648-0.607-12.914,0.087
						C76.645,1280.237,76.568,1221.958,76.76,1163.668z"/>
					<path fill="#929191" d="M412.504,1388.332c4.208,1.608,8.754,2.196,13.241,2.128c-0.219,8.809-0.287,109.492-0.01,128.664
						c-4.439,0.154-8.879,0.145-13.318-0.019C412.446,1475.511,412.282,1431.917,412.504,1388.332z"/>
					<path fill="#929191" d="M76.365,1389.565c4.343,0.982,8.859,1.021,13.26,0.395c0.443,43.045,0.077,86.1,0.183,129.145
						c-4.43,0.164-8.869,0.193-13.299,0.019C76.71,1503.479,76.828,1399.904,76.365,1389.565z"/>
					<path fill="#929191" d="M1218.818,1416.201c1.127-0.01,2.273-0.019,3.438-0.048c0.643,7.458,0.336,96.207,0.27,102.644
						c-4.324-0.366-8.667-0.337-12.991,0.019c0.01-16.245-0.202-32.501,0.116-48.746
						C1219.798,1450.005,1220.388,1432.722,1218.818,1416.201z"/>
					<path fill="#929191" d="M873.859,1455.654c3.842,2.985,8.368,5.075,13.135,6.096c-0.231,19.038-0.106,38.086-0.058,57.124
						c-4.41,0.222-8.821,0.52-13.231,0.26C873.801,1497.968,873.502,1476.811,873.859,1455.654z"/>
				</g>
			</g>
			<g>
				<path fill="#6B6869" d="M629.492,28.072c24.291-10.001,53.776-0.411,67.12,23.574c13.326,23.343,7.994,57.084-21.677,74.063
					c12.528,7.887,21.917,21.224,23.41,36.141c-32.424-1.579-64.915-1.926-97.338-0.337c1.589-14.791,10.93-28.042,23.449-35.784
					C582.993,102.478,588.27,44.628,629.492,28.072 M625.39,69.172c-3.89,10.362-0.212,22.938,8.763,29.458
					c10.352,8.214,26.829,6.356,35.159-3.89c7.29-8.243,8.224-21.311,2.205-30.517C660.558,46.459,632.759,48.685,625.39,69.172z"/>
				<path fill="#6B6869" d="M1109.327,296.571c16.287,8.892,18.451,31.838,3.987,43.421c-19.092,14.922-46.428-0.28-42.622-25.432
					C1076.647,293.346,1097.03,289.543,1109.327,296.571z"/>
				<path fill="#6B6869" d="M165.162,359.126c17.875,7.249,21.139,31.648,7.059,43.652c-6.259,5.836-15.244,7.482-23.497,6.211
					c-4.093-1.367-8.012-3.342-11.421-5.999C114.158,380.635,140.207,347.409,165.162,359.126z"/>
				<path fill="#6B6869" d="M452.804,397.954c30.047,9.623,22.009,54.341-11.45,51.462c-4.478-1.136-8.811-2.956-12.596-5.614
					c-7.839-6.529-11.652-17.478-8.888-27.387C422.752,404.803,435.429,393.483,452.804,397.954z"/>
				<path fill="#6B6869" d="M869.968,449.608c25.053,7.271,28.307,35.701,8.378,48.891c-18.18,10.991-43.055-4.575-39.28-26.896
					C840.699,459.887,851.903,447.427,869.968,449.608z"/>
				<path fill="#6B6869" d="M76.731,1338.527c4.266-0.693,8.628-0.684,12.914-0.087c3.573,1.281,7.107,2.879,10.073,5.296
					c14.349,11.175,14.334,38.103-10.092,46.223c-23.1,3.286-33.429-14.155-32.635-26.723
					C57.106,1351.749,65.801,1341.512,76.731,1338.527z"/>
				<path fill="#6B6869" d="M412.427,1340.077c27.751-10.936,48.046,21.079,31.152,40.898c-6.458,8.012-18.321,12.231-31.075,7.357
					c-17.238-9.334-18.027-26.507-12.057-36.979C403.124,1346.423,407.554,1342.706,412.427,1340.077z"/>
				<path fill="#6B6869" d="M1222.208,1364.614c29.087,10.017,24.715,45.041,0.048,51.539c-1.165,0.029-2.311,0.038-3.438,0.048
					c-1.964-17.064-8.079-33.29-15.485-48.679C1207.144,1365.752,1211.548,1363.272,1222.208,1364.614z"/>
				<path fill="#6B6869" d="M1204.691,1413.861c-13.674-5.624-19.038-24.094-11.354-36.526
					C1198.624,1388.939,1203.574,1401.043,1204.691,1413.861z"/>
				<path fill="#6B6869" d="M914.236,1422.913c10.23,18.063-4.033,41.953-27.243,38.837c-22.908-4.906-28.92-30.973-13.318-45.626
					C886.106,1405.232,906.102,1408.103,914.236,1422.913z"/>
				<path fill="#6B6869" d="M57.915,1553.936c394.274,0.038,788.557-0.01,1182.83,0.019
					c-14.781,30.302-54.967,70.071-117.648,70.105c-311.996,0-624.002,0-936.008,0c-24.51,0.065-71.248,3.142-106.015-32.491
					C70.79,1580.909,62.364,1568.121,57.915,1553.936z"/>
			</g>
		</g>
	</g>
</g>
</svg>
